<?xml version="1.0" encoding="UTF-8"?>
<svg id="Camada_2" data-name="Camada 2" xmlns="http://www.w3.org/2000/svg" viewBox="0 0 462.23 395.17">
  <defs>
    <style>
      .cls-1 {
        fill: #fff;
      }
    </style>
  </defs>
  <g id="Camada_1-2" data-name="Camada 1">
    <g>
      <path class="cls-1" d="M46.49,191.81c-.22.82-.66,1.58-1.31,2.29-.64.71-1.69.85-3.15.44,0,0-.26-.07-.79-.21-.54-.15-1.16-.34-1.85-.56-.69-.22-1.32-.41-1.88-.56-1.92-.59-3.82-1.17-5.73-1.73-1.9-.55-3.68-1.07-5.33-1.54-2.53-.72-5.05-1.43-7.58-2.13-2.53-.69-5.23-1.42-8.1-2.19-1.03-.29-2.15-.56-3.38-.81-1.22-.25-2.39-.53-3.5-.83-1.13-.32-2.1-.76-2.94-1.31-.83-.57-1.11-1.38-.85-2.42.16-.5.41-1.35.77-2.56.35-1.21.74-2.51,1.19-3.92.45-1.42.84-2.69,1.19-3.83.35-1.15.58-1.92.69-2.31.22-.8.66-1.38,1.29-1.71.63-.33,1.2-.43,1.71-.29,1.03.29,1.72.8,2.06,1.52.35.72.49,1.56.44,2.52-.05.95-.21,1.87-.48,2.77-.28.97-.55,1.89-.81,2.75-.26.86-.3,1.58-.13,2.17.18.58.78,1.02,1.79,1.29.61.18,1.51.43,2.69.75,1.18.31,2.44.65,3.77,1.02s2.55.7,3.65.98c1.08.28,1.86.49,2.33.63.93.27,1.59.27,1.98,0,.38-.26.65-.69.81-1.29.25-.86.6-1.74,1.04-2.65.45-.92.99-1.66,1.65-2.23.64-.57,1.43-.72,2.38-.46.6.17.97.58,1.13,1.25.16.66.18,1.41.08,2.27-.11.85-.26,1.64-.44,2.38-.19.74-.34,1.27-.44,1.6-.11.42-.03.85.25,1.31.27.45.66.74,1.17.88l6.79,1.94c1.13.32,1.85.13,2.19-.58.33-.72.7-1.78,1.1-3.19.27-.96.62-1.97,1.06-3.04.43-1.07,1.03-1.94,1.79-2.6.78-.67,1.74-.84,2.9-.52.59.17.92.72.96,1.67.04.93-.08,2.04-.35,3.33-.28,1.28-.56,2.6-.85,3.96-.32,1.29-.54,2.49-.65,3.6-.1,1.1-.2,1.82-.29,2.17Z"/>
      <path class="cls-1" d="M53.71,133.93c.93.45,1.86.91,2.81,1.4.96.49,1.96.97,3,1.44.54.22,1.14.5,1.79.83.65.33,1.22.63,1.71.88l.75.38c1,.52,1.76,1.09,2.27,1.73.53.64.42,1.69-.33,3.15-.85,1.67-1.79,2.79-2.81,3.38-1.02.57-2.3.73-3.85.48l-22.65-3.58c-.55-.09-.95.08-1.19.52-.23.47-.07.9.48,1.27l9.5,4.83c.95.45,1.9.91,2.85,1.4.95.49,1.94.97,2.98,1.44.53.22,1.12.5,1.77.83.66.33,1.22.63,1.71.88l.75.38c1,.52,1.76,1.09,2.29,1.73.53.64.42,1.69-.33,3.15-.58,1.16-1.33,1.78-2.23,1.88-.89.1-1.83-.11-2.83-.63,0,0-.24-.13-.73-.38-.5-.25-1.07-.55-1.71-.9-.65-.36-1.23-.67-1.75-.94-1.75-.94-3.43-1.83-5.04-2.67-1.63-.84-3.21-1.67-4.75-2.46-2.33-1.19-4.67-2.38-7.02-3.54-2.34-1.18-4.86-2.42-7.54-3.73-1.03-.53-2.17-1.06-3.44-1.6-1.26-.55-2.44-1.11-3.54-1.69-.92-.46-1.66-1.01-2.23-1.65-.58-.65-.54-1.66.13-3.02l.08-.17c.6-1.18,1.14-2.13,1.63-2.83.49-.71,1.36-1.01,2.63-.9.41.04,1.29.16,2.67.33,1.36.17,3.06.41,5.1.73,2.04.32,4.24.66,6.6,1.02,2.36.36,4.72.72,7.06,1.06,2.35.35,4.5.64,6.46.88.57.06.94-.07,1.1-.4.21-.4.02-.76-.58-1.06-2.25-1.15-4.71-2.36-7.38-3.65-2.68-1.28-5.27-2.53-7.77-3.75-1.03-.53-2.17-1.06-3.44-1.6-1.28-.55-2.46-1.11-3.56-1.69-.96-.48-1.72-1.05-2.29-1.69-.57-.64-.48-1.69.27-3.15.81-1.58,1.58-2.41,2.31-2.48.72-.08,1.48.08,2.27.48,1.18.61,2.44,1.31,3.77,2.08,1.32.77,2.56,1.45,3.71,2.04l11.54,6,7,3.56Z"/>
      <path class="cls-1" d="M82.57,118.99c-2.25,2.81-5.68,3.66-10.27,2.56-4.61-1.11-9.9-4.06-15.88-8.85-3.69-2.97-6.59-5.96-8.71-8.98-2.13-3.01-3.38-5.86-3.75-8.54-.39-2.69.19-5,1.73-6.92,1.33-1.67,3.04-2.68,5.1-3.04,2.07-.38,4.36-.11,6.88.77,2.5.88,5.05,2.35,7.65,4.44,1.61,1.29,1.71,2.82.29,4.58-.69.86-1.39,1.32-2.08,1.38-.69.04-1.36-.11-2-.46-2.57-2.07-4.86-3.47-6.88-4.21-2.03-.75-3.41-.67-4.15.25-.73.93-.83,2.2-.29,3.79.53,1.6,1.64,3.39,3.31,5.38,1.68,1.97,3.84,4.02,6.48,6.15,2.91,2.33,5.6,4.23,8.08,5.69,2.49,1.46,4.58,2.39,6.29,2.79,1.71.39,2.86.2,3.46-.56.83-1.04.88-2.39.15-4.04-.74-1.65-2.12-3.29-4.15-4.92-1-.8-1.38-1.54-1.15-2.21.22-.68.6-1.35,1.13-2.02.75-.93,1.48-1.38,2.19-1.35.71.03,1.26.2,1.65.5,3.71,2.99,5.98,6.06,6.81,9.21.83,3.16.2,6.03-1.9,8.63Z"/>
      <path class="cls-1" d="M101.81,98.27c-.72.6-1.38.86-1.96.79-.58-.07-1.06-.32-1.42-.77-.26-.3-.48-.67-.65-1.08-.14-.36-.58-1.23-1.33-2.6-.75-1.39-1.67-3.07-2.75-5.06-1.09-1.98-2.28-4.13-3.56-6.42-1.28-2.29-2.53-4.53-3.77-6.73-1.23-2.21-2.36-4.21-3.4-6.02-1.04-1.82-1.84-3.21-2.42-4.17-.43-.72-1.03-1.7-1.81-2.94-.79-1.23-1.47-2.19-2.04-2.88-.57-.68-.78-1.43-.63-2.25.14-.83.68-1.64,1.6-2.42.92-.76,1.8-1.15,2.65-1.15.83-.01,1.54.32,2.1,1,.57.68,1.4,1.52,2.48,2.5,1.08.97,1.95,1.74,2.58,2.29.85.74,2.08,1.77,3.69,3.1,1.61,1.32,3.4,2.79,5.35,4.4,1.96,1.6,3.94,3.23,5.96,4.9,2.03,1.66,3.92,3.19,5.69,4.6,1.78,1.42,3.28,2.61,4.52,3.58,1.25.96,2.03,1.55,2.33,1.77.38.24.69.51.96.81.36.45.53.97.5,1.56-.03.58-.4,1.18-1.1,1.77-.96.79-1.76,1.27-2.4,1.42-.63.14-1.4-.09-2.31-.71-.64-.47-1.18-.86-1.63-1.19-.43-.32-.86-.59-1.29-.81-.6-.38-1.27-.57-2.02-.58-.74-.01-1.58.38-2.52,1.17-.96.81-1.49,1.58-1.6,2.31-.11.72-.04,1.42.23,2.08.15.45.35.91.6,1.4.25.47.54,1.07.88,1.79.44,1.02.54,1.82.29,2.42-.25.6-.85,1.3-1.81,2.1ZM99.66,81.92c.51-.43.89-.88,1.13-1.33.25-.46.07-.98-.52-1.58-.29-.26-.87-.8-1.73-1.63-.88-.82-1.85-1.73-2.94-2.73-1.09-1-2.16-1.98-3.19-2.94-1.04-.96-1.92-1.73-2.65-2.31-.72-.58-1.13-.83-1.23-.75-.11.08.06.54.52,1.35.45.82,1.05,1.82,1.81,3,.77,1.18,1.54,2.41,2.33,3.67.78,1.25,1.5,2.37,2.17,3.35.67.99,1.1,1.65,1.31,1.98.47.71.97.97,1.5.79.51-.18,1.01-.47,1.48-.88Z"/>
      <path class="cls-1" d="M144.87,51.05c.51.89,1.03,1.81,1.54,2.75.51.93,1.06,1.9,1.65,2.9.32.49.65,1.06,1,1.71.34.64.65,1.2.92,1.69.26.49.4.73.4.73.53.99.82,1.9.88,2.73.07.82-.61,1.62-2.04,2.4-1.64.89-3.04,1.29-4.21,1.19-1.17-.11-2.33-.72-3.48-1.83l-16.58-15.81c-.42-.39-.84-.46-1.27-.23-.47.25-.58.69-.33,1.31l5.06,9.4c.51.88,1.03,1.79,1.54,2.73.51.93,1.06,1.91,1.65,2.92.32.47.65,1.04,1,1.69.34.64.65,1.2.92,1.69.26.49.4.73.4.73.53.99.82,1.9.88,2.73.07.82-.61,1.62-2.04,2.4-1.14.61-2.1.7-2.9.27-.79-.43-1.45-1.14-1.98-2.13,0,0-.14-.24-.4-.73-.26-.48-.55-1.05-.88-1.71-.33-.67-.64-1.25-.92-1.75-.9-1.78-1.78-3.48-2.63-5.1-.86-1.63-1.7-3.19-2.52-4.71-1.25-2.3-2.51-4.6-3.77-6.9-1.26-2.3-2.61-4.76-4.06-7.35-.55-1.01-1.2-2.1-1.94-3.27-.73-1.18-1.4-2.31-2-3.4-.48-.9-.78-1.78-.88-2.63-.11-.86.49-1.67,1.81-2.42l.17-.08c1.17-.64,2.16-1.11,2.96-1.42.81-.3,1.7-.04,2.67.79.31.24.97.82,2,1.75,1.03.93,2.29,2.1,3.79,3.52s3.12,2.95,4.85,4.58c1.73,1.64,3.47,3.27,5.21,4.9,1.73,1.61,3.34,3.08,4.81,4.4.44.35.82.44,1.15.27.39-.21.42-.6.1-1.19-1.2-2.22-2.53-4.61-4-7.19-1.46-2.57-2.87-5.07-4.23-7.52-.56-1.01-1.2-2.1-1.94-3.27-.73-1.18-1.4-2.31-2-3.4-.5-.94-.8-1.84-.9-2.69-.11-.84.56-1.66,2-2.44,1.55-.84,2.66-1.09,3.31-.75.65.35,1.19.91,1.63,1.69.63,1.18,1.26,2.47,1.9,3.85.65,1.39,1.29,2.66,1.92,3.79l6.06,11.5,3.73,6.92Z"/>
      <path class="cls-1" d="M177.45,55.29c-1.06.32-1.99.39-2.81.19-.82-.21-1.45-1.03-1.9-2.48,0,0-.08-.26-.23-.79-.16-.54-.33-1.16-.52-1.85-.18-.71-.36-1.34-.54-1.92-.53-1.92-1.06-3.82-1.6-5.73-.54-1.9-1.06-3.68-1.56-5.33-.75-2.51-1.52-5.14-2.29-7.88-.77-2.73-1.66-5.51-2.69-8.31l-.38-1.08c-.36-1.18-.79-1.95-1.29-2.31-.51-.36-1.18-.48-2-.35-.82.13-1.86.38-3.15.75-1.28.39-2.19.51-2.75.35-.55-.15-.92-.46-1.1-.92-.18-.46-.34-.94-.5-1.44-.23-.82-.17-1.56.21-2.23.38-.68.86-1.11,1.46-1.29,3.49-1.04,6.92-2.05,10.29-3.04,3.38-.98,6.38-1.88,9.02-2.67.8-.23,1.51-.17,2.13.19.61.35.99.78,1.15,1.29.15.52.13,1.22-.06,2.1-.2.89-.81,1.6-1.85,2.15-1,.54-1.78.91-2.33,1.1-.54.18-1.1.41-1.67.67-.78.36-1.24.78-1.4,1.25-.16.47-.12,1.06.1,1.77.17.6.41,1.48.73,2.65.33,1.16.67,2.38,1.02,3.67.36,1.28.69,2.45.98,3.52.3,1.07.53,1.84.67,2.31l6.52,21.08c.39,1.31.48,2.32.27,3.04-.21.71-.85,1.22-1.92,1.54Z"/>
      <path class="cls-1" d="M215.1,47.85c-2.38.21-4.58-.56-6.63-2.31-2.03-1.76-3.74-4.41-5.15-7.94-1.41-3.54-2.33-7.84-2.77-12.9-.42-4.72-.26-8.89.46-12.5.72-3.63,1.94-6.51,3.65-8.65,1.71-2.14,3.78-3.31,6.21-3.52,1.88-.17,3.63.27,5.25,1.29,1.64,1.02,3.1,2.52,4.4,4.5,1.22,1.93,2.26,4.31,3.13,7.13.86,2.82,1.44,6,1.75,9.54.44,5.06.29,9.45-.46,13.19-.74,3.72-1.96,6.64-3.67,8.73-1.71,2.08-3.77,3.23-6.17,3.44ZM214.56,41.81c1.21-.11,2.18-.98,2.92-2.63.75-1.65,1.25-3.92,1.5-6.79.26-2.88.23-6.17-.08-9.88-.27-2.98-.69-5.63-1.27-7.94-.58-2.32-1.31-4.18-2.17-5.58-1.27-2.05-2.61-3.02-4.04-2.9-1.18.11-2.17.91-2.96,2.4-.78,1.49-1.31,3.52-1.58,6.1-.27,2.58-.24,5.57.06,8.96.32,3.71.84,6.96,1.58,9.75.75,2.79,1.65,4.94,2.69,6.44,1.05,1.49,2.17,2.18,3.35,2.06Z"/>
      <path class="cls-1" d="M277.98,52.67c-1.16-.31-2.04-.56-2.65-.77-.61-.21-1.37-.59-2.27-1.15-.86-.56-1.49-1.08-1.88-1.56-.38-.48-.42-1.27-.13-2.35,0,0,.07-.26.21-.79.14-.54.31-1.17.52-1.88s.39-1.33.54-1.88c.55-1.92,1.07-3.76,1.56-5.52.48-1.78.94-3.5,1.38-5.17.67-2.53,1.32-5.06,1.98-7.6.65-2.54,1.34-5.26,2.06-8.15.26-1.03.51-2.15.75-3.38.23-1.23.5-2.42.79-3.54.42-1.59,1.03-2.67,1.85-3.23.82-.57,1.84-.79,3.06-.67,1.23.13,2.67.41,4.29.83,2.32.61,4.17,1.93,5.54,3.94,1.39,2.02,2.35,4.45,2.9,7.31.55,2.86.75,5.87.58,9.02-.16,3.14-.61,6.16-1.38,9.04-.68,2.58-1.58,5.07-2.69,7.46-1.11,2.39-2.47,4.47-4.06,6.23-1.58,1.76-3.45,3.02-5.6,3.77-2.16.75-4.61.76-7.38.02ZM280.92,46.81c1.97.52,3.92-.41,5.83-2.77,1.93-2.36,3.48-5.76,4.65-10.19,1.08-4.07,1.58-7.71,1.5-10.94-.07-3.22-.49-5.81-1.27-7.77-.77-1.97-1.66-3.09-2.69-3.38-.82-.21-1.41.05-1.77.77-.35.71-.73,1.85-1.15,3.44l-7.17,27.13c-.22.86-.18,1.64.13,2.31.32.67.96,1.14,1.94,1.4Z"/>
      <path class="cls-1" d="M307.54,62.46c-.83-.41-1.34-.89-1.52-1.46-.17-.56-.13-1.09.13-1.6.17-.36.41-.71.73-1.04.28-.26.89-1.02,1.83-2.27.96-1.25,2.13-2.77,3.5-4.56,1.38-1.8,2.84-3.76,4.42-5.85,1.58-2.09,3.13-4.16,4.63-6.19,1.51-2.04,2.88-3.9,4.1-5.56,1.23-1.68,2.18-2.98,2.83-3.92.48-.68,1.13-1.63,1.94-2.83.8-1.21,1.41-2.21,1.81-3.02.39-.8.98-1.3,1.79-1.5.82-.19,1.77-.03,2.85.5,1.07.53,1.78,1.18,2.13,1.94.36.75.34,1.53-.04,2.33-.41.81-.83,1.91-1.29,3.29-.45,1.38-.79,2.47-1.04,3.27-.32,1.08-.77,2.63-1.33,4.63-.56,2-1.17,4.22-1.83,6.67-.67,2.45-1.35,4.94-2.04,7.48-.7,2.53-1.33,4.89-1.9,7.08-.57,2.18-1.04,4.03-1.42,5.56-.38,1.53-.61,2.47-.71,2.83-.07.46-.19.86-.35,1.23-.25.51-.66.88-1.21,1.08-.54.21-1.23.1-2.06-.31-1.11-.54-1.87-1.08-2.27-1.6-.39-.52-.49-1.31-.29-2.38.17-.78.3-1.44.42-1.98.13-.53.2-1.04.23-1.52.09-.7,0-1.39-.29-2.06-.29-.68-.99-1.29-2.1-1.83-1.13-.55-2.04-.73-2.75-.54-.71.2-1.31.54-1.79,1.04-.36.33-.71.72-1.04,1.15-.33.43-.77.94-1.31,1.54-.74.8-1.43,1.21-2.08,1.23-.64.01-1.52-.26-2.65-.81ZM321.6,53.87c.59.29,1.15.46,1.67.5.53.04.94-.34,1.25-1.15.13-.39.38-1.14.77-2.25.4-1.13.83-2.39,1.29-3.79.47-1.4.94-2.77,1.4-4.1s.8-2.45,1.04-3.35c.23-.9.3-1.38.19-1.44-.13-.05-.47.29-1.04,1.04-.56.74-1.22,1.7-2,2.88-.77,1.18-1.56,2.39-2.4,3.6-.82,1.22-1.55,2.34-2.19,3.35-.63,1-1.05,1.68-1.27,2.02-.46.72-.5,1.29-.13,1.69.39.39.86.72,1.42,1Z"/>
      <path class="cls-1" d="M368.13,103.89c-1.31-1.32-2.06-2.47-2.27-3.46-.21-.97,0-1.77.65-2.4.63-.63,1.38-1.52,2.27-2.67.89-1.15,1.58-2.07,2.08-2.77.71-.94,1.67-2.23,2.88-3.88,1.22-1.64,2.58-3.46,4.08-5.48,1.5-2.01,3.03-4.05,4.6-6.13,1.58-2.08,3.05-4.03,4.4-5.83,1.34-1.8,2.47-3.33,3.38-4.58.92-1.25,1.46-2.05,1.65-2.4.25-.44.5-.79.75-1.04.44-.44.95-.66,1.52-.65.57.02,1.18.35,1.83,1,.88.89,1.41,1.64,1.6,2.25.19.61.03,1.41-.5,2.38-.36.66-1.11,1.81-2.25,3.48-1.13,1.66-2.36,3.36-3.71,5.13-2.6,3.5-4.65,6.23-6.15,8.19-1.5,1.95-2.6,3.39-3.31,4.33-.7.95-1.12,1.57-1.27,1.88-.14.29-.16.5-.04.63.17.16.44.14.83-.06.4-.21,1.1-.69,2.1-1.44,1.01-.75,2.48-1.84,4.42-3.27,1.93-1.44,4.49-3.32,7.69-5.65,1.78-1.29,3.53-2.52,5.25-3.69,1.73-1.17,2.92-1.94,3.56-2.31.96-.53,1.74-.69,2.35-.48.63.21,1.38.76,2.25,1.65.65.67.98,1.29.98,1.85s-.22,1.06-.67,1.5c-.25.25-.6.5-1.04.75-.32.2-1.12.74-2.4,1.63-1.28.88-2.83,1.98-4.65,3.31-1.82,1.32-3.79,2.75-5.9,4.29-2.1,1.54-4.16,3.05-6.19,4.52-2.03,1.48-3.87,2.82-5.52,4.02-1.66,1.21-2.96,2.15-3.92,2.83-.7.5-1.64,1.18-2.81,2.04-1.17.88-2.06,1.63-2.69,2.25-.64.63-1.45.82-2.42.6-.97-.22-2.12-1-3.44-2.33Z"/>
      <path class="cls-1" d="M388.11,127.67c-.75-1.06-.96-2-.63-2.83s.95-1.58,1.85-2.23c0,0,.23-.16.69-.48.46-.32.99-.68,1.6-1.08.61-.4,1.15-.77,1.6-1.1,1.67-1.14,3.25-2.22,4.75-3.25,1.5-1.04,2.95-2.06,4.35-3.06,2.14-1.51,4.27-3.04,6.4-4.58s4.39-3.19,6.79-4.94c.93-.67,1.94-1.44,3.02-2.31,1.08-.89,2.13-1.69,3.13-2.4.88-.63,1.73-1.03,2.56-1.23.83-.21,1.72.35,2.67,1.69,1.03,1.45,1.4,2.52,1.13,3.21-.27.68-.76,1.28-1.48,1.79-1.08.78-2.28,1.58-3.58,2.4-1.31.81-2.49,1.58-3.54,2.33l-10.63,7.48-6.44,4.5c-.81.64-1.65,1.26-2.52,1.88-.88.63-1.78,1.28-2.71,1.98-.43.38-.95.77-1.54,1.19-.6.43-1.13.8-1.58,1.13-.46.32-.69.48-.69.48-.91.65-1.77,1.05-2.58,1.21-.81.17-1.68-.42-2.63-1.75Z"/>
      <path class="cls-1" d="M400.98,148.29c-.38-.77-.57-1.63-.58-2.58,0-.95.67-1.76,2.02-2.44l.75-.38c.5-.25,1.07-.53,1.73-.83.65-.32,1.24-.61,1.77-.88,1.79-.86,3.57-1.73,5.35-2.6,1.79-.88,3.46-1.69,5-2.46,2.33-1.18,4.67-2.38,7-3.58s4.82-2.5,7.46-3.88c1.03-.51,2.14-1.11,3.33-1.81,1.19-.71,2.34-1.34,3.44-1.9.96-.48,1.86-.77,2.71-.85.86-.08,1.67.6,2.42,2.06.79,1.6,1,2.72.63,3.35-.38.63-.96,1.14-1.75,1.54-1.2.61-2.49,1.23-3.9,1.85-1.39.63-2.67,1.22-3.83,1.77l-9.1,4.27-15.29,7.73c-1.04.51-1.47,1.11-1.27,1.81.21.71.64,1.71,1.29,3.02.44.88.86,1.85,1.27,2.94.4,1.09.54,2.15.42,3.15-.11,1.01-.7,1.78-1.75,2.31-.89.44-1.64.35-2.23-.27-.58-.63-1.04-1.27-1.38-1.94l-2.13-4.23c-.6-1.18-1.22-2.16-1.88-2.94-.64-.78-1.14-1.53-1.5-2.25Z"/>
      <path class="cls-1" d="M413.35,175.96c-.25-.89-.23-1.59.06-2.1.29-.5.71-.83,1.25-1,.39-.11.82-.16,1.29-.15.39.01,1.36-.05,2.92-.19,1.55-.13,3.46-.28,5.71-.46,2.26-.19,4.7-.42,7.31-.67,2.61-.25,5.17-.5,7.69-.75,2.53-.25,4.82-.48,6.9-.69,2.07-.22,3.66-.4,4.77-.52.84-.11,1.98-.27,3.42-.48,1.44-.22,2.59-.46,3.46-.71.84-.25,1.61-.14,2.31.33.69.46,1.21,1.27,1.54,2.44.34,1.16.35,2.11.02,2.88-.33.78-.93,1.29-1.77,1.54-.86.25-1.96.67-3.29,1.27-1.32.59-2.37,1.07-3.15,1.42-1.02.48-2.45,1.19-4.31,2.13-1.86.94-3.93,1.98-6.19,3.13-2.25,1.15-4.54,2.32-6.88,3.5-2.33,1.19-4.51,2.31-6.52,3.35-2.02,1.05-3.71,1.96-5.08,2.71s-2.22,1.21-2.54,1.38c-.41.26-.8.45-1.19.56-.54.17-1.08.11-1.6-.17-.52-.27-.91-.84-1.17-1.73-.33-1.18-.45-2.1-.33-2.75.13-.64.65-1.25,1.58-1.83.67-.39,1.23-.72,1.71-1,.48-.28.92-.56,1.29-.85.58-.41,1.03-.95,1.33-1.63.3-.67.28-1.59-.06-2.77-.35-1.2-.83-1.99-1.46-2.4-.61-.39-1.27-.6-1.98-.65-.47-.04-.99-.04-1.54,0-.54.05-1.2.07-1.98.06-1.1,0-1.88-.24-2.33-.71-.45-.47-.84-1.31-1.19-2.5ZM429.16,180.6c.19.64.45,1.16.77,1.56.33.42.89.46,1.67.15.38-.16,1.1-.47,2.19-.94,1.09-.46,2.32-.99,3.67-1.58,1.36-.6,2.69-1.18,3.98-1.73,1.29-.56,2.34-1.05,3.17-1.48.83-.43,1.23-.71,1.19-.83-.03-.14-.51-.17-1.44-.08-.93.08-2.09.23-3.48.46-1.39.22-2.82.44-4.29.67-1.46.22-2.77.43-3.94.63-1.17.21-1.95.34-2.35.42-.83.15-1.27.5-1.31,1.04-.04.55.02,1.13.19,1.73Z"/>
    </g>
    <g>
      <path class="cls-1" d="M128.4,395.1c-1.04,0-1.77-.31-2.17-.92-.39-.61-.58-1.36-.58-2.27v-.67c0-.46,0-.98.02-1.58.01-.59.02-1.13.02-1.58.04-1.63.07-3.18.08-4.67.03-1.48.04-2.93.04-4.33,0-2.13-.02-4.25-.04-6.38-.02-2.14-.04-4.42-.08-6.83,0-.86-.04-1.93-.1-3.21-.07-1.29-.1-2.41-.1-3.35,0-1.15.26-1.97.77-2.46.53-.48,1.28-.78,2.27-.88,1-.11,2.19-.17,3.56-.17,1.92,0,3.49.48,4.73,1.44,1.25.95,2.22,2.2,2.92,3.75.71,1.56,1.21,3.23,1.52,5.02.32,1.78.48,3.5.48,5.17,0,3.28-.8,5.87-2.4,7.77-1.58,1.89-3.64,2.83-6.17,2.83-.58.04-1.06.13-1.44.25s-.56.64-.56,1.54v8.33c0,.91-.2,1.66-.6,2.27-.39.61-1.11.92-2.17.92ZM133.38,375.63c.9,0,1.63-.57,2.17-1.71.54-1.14.81-2.65.81-4.52,0-1.63-.2-3.09-.6-4.42-.39-1.32-.89-2.36-1.48-3.15-.6-.78-1.24-1.17-1.92-1.17s-1.04.32-1.17.96c-.13.63-.19,1.61-.19,2.96l.06,8.54c0,.72.18,1.32.54,1.79.36.47.95.71,1.77.71Z"/>
      <path class="cls-1" d="M166.42,395c-1.95,0-3.68-.78-5.21-2.35-1.52-1.57-2.72-3.83-3.6-6.79-.88-2.96-1.31-6.49-1.31-10.6,0-3.88.42-7.24,1.27-10.1.84-2.88,2.03-5.11,3.56-6.71,1.54-1.61,3.3-2.42,5.29-2.42,1.51,0,2.89.47,4.13,1.42,1.25.93,2.32,2.24,3.23,3.94.88,1.67,1.55,3.68,2.04,6.02.48,2.35.73,4.97.73,7.85,0,4.11-.44,7.65-1.31,10.6-.86,2.96-2.06,5.22-3.6,6.79-1.53,1.57-3.27,2.35-5.21,2.35ZM166.42,390.08c.97,0,1.82-.64,2.54-1.92.72-1.29,1.29-3.09,1.71-5.4.42-2.32.63-4.99.63-8.02,0-2.42-.16-4.57-.46-6.48-.31-1.92-.77-3.47-1.38-4.67-.88-1.78-1.89-2.67-3.04-2.67-.97,0-1.83.58-2.58,1.75-.74,1.16-1.31,2.77-1.71,4.85-.39,2.07-.58,4.47-.58,7.21,0,3.03.19,5.7.58,8.02.4,2.31.97,4.1,1.71,5.4.75,1.28,1.61,1.92,2.58,1.92Z"/>
      <path class="cls-1" d="M199.83,395.17c-1.96,0-3.67-.46-5.13-1.38-1.46-.93-2.52-2.22-3.17-3.88-.18-.54-.33-1.51-.46-2.92-.13-1.42-.19-3.17-.19-5.27,0-.39,0-.8.02-1.25.03-.46.04-.92.04-1.4,0-2.13-.02-4.25-.04-6.38-.02-2.14-.04-4.42-.08-6.83,0-.94-.04-1.97-.1-3.08-.07-1.13-.1-2.19-.1-3.21,0-.86.13-1.61.38-2.25.25-.65,1.05-.98,2.4-.98,1.43,0,2.3.25,2.63.75.33.5.5,1.11.5,1.83,0,1.08-.04,2.25-.1,3.5-.07,1.25-.1,2.4-.1,3.44l-.1,13.27c0,3.93.28,6.68.83,8.25.55,1.57,1.5,2.35,2.83,2.35s2.36-.79,2.96-2.38c.59-1.59.9-4.36.9-8.29,0-.72-.02-1.71-.04-2.98-.02-1.26-.03-2.59-.04-3.98-.02-1.39-.04-2.66-.06-3.81-.02-1.15-.02-1.96-.02-2.44,0-.94-.04-1.97-.1-3.08-.07-1.13-.1-2.19-.1-3.21,0-.86.13-1.61.38-2.25.25-.65,1.04-.98,2.38-.98,1.44,0,2.32.25,2.65.75.33.5.5,1.11.5,1.83,0,1.08-.04,2.25-.1,3.5-.07,1.25-.1,2.4-.1,3.44s-.02,2.48-.04,4.31c-.02,1.82-.02,3.91-.02,6.25,0,3.32-.13,6.18-.38,8.58-.25,2.41-.6,4.09-1.04,5.06-.68,1.58-1.71,2.83-3.08,3.73-1.36.9-2.91,1.35-4.65,1.35Z"/>
      <path class="cls-1" d="M231.01,395.17c-1.49,0-2.87-.33-4.15-.98-1.28-.65-2.31-1.53-3.1-2.65-.79-1.13-1.19-2.36-1.19-3.73,0-.76.14-1.3.42-1.6.29-.3.61-.46.98-.46,1.15,0,2.05.6,2.71,1.79.83,1.52,2.36,2.27,4.6,2.27.86,0,1.65-.19,2.38-.58.72-.4,1.08-.95,1.08-1.65,0-.43-.16-.8-.46-1.13-.31-.33-.58-.57-.83-.71-2.42-1.59-4.35-3.13-5.79-4.6-1.45-1.48-2.54-2.9-3.29-4.25-.74-1.36-1.22-2.63-1.46-3.79-.22-1.18-.33-2.23-.33-3.17,0-4.73.79-8.23,2.38-10.5,1.58-2.28,3.8-3.42,6.67-3.42s4.8.93,6.19,2.79c1.39,1.86,2.08,4.6,2.08,8.21,0,1.18-.08,2.4-.23,3.65-.14,1.25-.33,2.45-.58,3.6-.29,1.33-1.06,2-2.31,2-.83,0-1.47-.19-1.92-.58-.43-.4-.65-1.11-.65-2.13.33-1.58.5-3.24.5-4.98,0-2.46-.31-4.32-.94-5.6-.61-1.28-1.33-1.92-2.15-1.92-.95,0-1.77.68-2.48,2.04-.7,1.35-1.04,3.35-1.04,6.02,0,.86.23,2.03.69,3.5.47,1.46,1.43,2.88,2.88,4.25,1.15,1.07,2.25,1.96,3.29,2.67,1.05.71,1.98,1.41,2.79,2.1.82.68,1.47,1.49,1.96,2.44.48.93.73,2.18.73,3.73,0,1.7-.45,3.08-1.33,4.17-.88,1.08-2.03,1.89-3.46,2.42-1.42.51-2.96.77-4.63.77Z"/>
      <path class="cls-1" d="M255.86,395.17c-.77,0-1.31-.18-1.63-.52-.32-.33-.48-.73-.48-1.21,0-.33.05-.68.15-1.04.11-.28.29-1.04.54-2.29.26-1.25.57-2.78.94-4.58.36-1.8.73-3.75,1.13-5.83.4-2.09.79-4.15,1.17-6.17.38-2.03.71-3.86,1.02-5.52.3-1.67.53-2.95.69-3.85.11-.69.24-1.63.4-2.79.17-1.18.25-2.13.25-2.85s.26-1.3.77-1.73c.53-.43,1.28-.65,2.27-.65s1.71.22,2.23.65c.53.43.79,1.01.79,1.73s.08,1.68.25,2.85c.17,1.17.3,2.1.4,2.79.15.91.38,2.19.69,3.85.3,1.66.65,3.49,1.02,5.52.39,2.02.78,4.07,1.17,6.17.4,2.08.78,4.03,1.15,5.83.36,1.81.67,3.33.94,4.58.28,1.25.45,2.02.52,2.29.11.36.17.71.17,1.04,0,.47-.17.88-.5,1.21-.32.34-.86.52-1.63.52-1,0-1.74-.12-2.21-.35-.47-.23-.83-.78-1.08-1.65-.16-.61-.29-1.13-.4-1.56-.1-.44-.22-.84-.38-1.21-.18-.54-.5-1.01-.96-1.4-.45-.4-1.17-.6-2.17-.6s-1.75.2-2.21.6c-.45.39-.76.85-.94,1.4-.16.36-.28.77-.38,1.21-.08.43-.22.95-.4,1.56-.25.86-.61,1.41-1.08,1.65-.46.23-1.2.35-2.21.35ZM263.06,383.9c.54,0,1.01-.07,1.4-.23.4-.17.57-.59.5-1.27-.04-.33-.12-.98-.23-1.94-.11-.96-.25-2.03-.42-3.21-.16-1.19-.31-2.36-.46-3.5-.14-1.14-.29-2.07-.44-2.81-.14-.73-.26-1.1-.35-1.1-.11,0-.24.37-.4,1.1-.14.74-.29,1.68-.44,2.81-.14,1.14-.29,2.31-.46,3.5-.16,1.18-.29,2.25-.4,3.21-.11.96-.18,1.6-.21,1.94-.08.68.08,1.1.5,1.27.42.16.88.23,1.4.23Z"/>
      <path class="cls-1" d="M293.26,395.06c-.97,0-1.72-.02-2.25-.06-.52-.03-1.19-.18-2.02-.44-.79-.25-1.39-.53-1.79-.83-.39-.3-.58-.91-.58-1.81v-.67c0-.46,0-.98.02-1.58.01-.59.02-1.13.02-1.58.04-1.63.07-3.18.08-4.67.03-1.48.04-2.93.04-4.33,0-2.13-.02-4.25-.04-6.38-.02-2.14-.04-4.42-.08-6.83,0-.86-.04-1.8-.1-2.81-.07-1.01-.1-1.99-.1-2.94,0-1.33.26-2.3.77-2.92.53-.61,1.28-.99,2.27-1.15,1-.17,2.19-.25,3.56-.25,1.94,0,3.67.66,5.17,1.96,1.5,1.29,2.76,3,3.79,5.13,1.03,2.13,1.8,4.45,2.33,6.96.53,2.52.79,4.98.79,7.4,0,2.17-.2,4.31-.58,6.42-.38,2.11-1.01,4.03-1.9,5.75-.88,1.71-2.08,3.08-3.63,4.1-1.53,1.03-3.45,1.54-5.77,1.54ZM294.34,389.85c1.67,0,3.01-1.13,4.02-3.38,1.01-2.26,1.52-5.25,1.52-8.96,0-3.43-.36-6.4-1.08-8.9-.72-2.51-1.59-4.46-2.6-5.85-1.02-1.4-1.95-2.1-2.81-2.1-.7,0-1.1.32-1.23.96-.13.63-.19,1.61-.19,2.96v22.79c0,.72.19,1.32.56,1.79.39.46.99.69,1.81.69Z"/>
      <path class="cls-1" d="M320.34,395.17c-.77,0-1.31-.18-1.63-.52-.32-.33-.48-.73-.48-1.21,0-.33.05-.68.15-1.04.11-.28.29-1.04.54-2.29.26-1.25.57-2.78.94-4.58.36-1.8.73-3.75,1.13-5.83.4-2.09.79-4.15,1.17-6.17.38-2.03.71-3.86,1.02-5.52.3-1.67.53-2.95.69-3.85.11-.69.24-1.63.4-2.79.17-1.18.25-2.13.25-2.85s.26-1.3.77-1.73c.53-.43,1.28-.65,2.27-.65s1.71.22,2.23.65c.53.43.79,1.01.79,1.73s.08,1.68.25,2.85c.17,1.17.3,2.1.4,2.79.15.91.38,2.19.69,3.85.3,1.66.65,3.49,1.02,5.52.39,2.02.78,4.07,1.17,6.17.4,2.08.78,4.03,1.15,5.83.36,1.81.67,3.33.94,4.58.28,1.25.45,2.02.52,2.29.11.36.17.71.17,1.04,0,.47-.17.88-.5,1.21-.32.34-.86.52-1.63.52-1,0-1.74-.12-2.21-.35-.47-.23-.83-.78-1.08-1.65-.16-.61-.29-1.13-.4-1.56-.1-.44-.22-.84-.38-1.21-.18-.54-.5-1.01-.96-1.4-.45-.4-1.17-.6-2.17-.6s-1.75.2-2.21.6c-.45.39-.76.85-.94,1.4-.16.36-.28.77-.38,1.21-.08.43-.22.95-.4,1.56-.25.86-.61,1.41-1.08,1.65-.46.23-1.2.35-2.21.35ZM327.55,383.9c.54,0,1.01-.07,1.4-.23.4-.17.57-.59.5-1.27-.04-.33-.12-.98-.23-1.94-.11-.96-.25-2.03-.42-3.21-.16-1.19-.31-2.36-.46-3.5-.14-1.14-.29-2.07-.44-2.81-.14-.73-.26-1.1-.35-1.1-.11,0-.24.37-.4,1.1-.14.74-.29,1.68-.44,2.81-.14,1.14-.29,2.31-.46,3.5-.16,1.18-.29,2.25-.4,3.21-.11.96-.18,1.6-.21,1.94-.08.68.08,1.1.5,1.27.42.16.88.23,1.4.23Z"/>
    </g>
    <path class="cls-1" d="M79.14,240.76c.52-.49-4.5-12.21-5.23-13.26-2.44-3.49-6.89-4.1-9.37-8.89-1.28-2.47-3.45-11.23.79-11.37,2.66-.09,11.48,11.11,12.2,13.85s.34,6.04,2.33,8.43c2.24-1.63,9.25-11.76,12.45-8.21,4.73,5.26-6.15,13.95-8.74,17.61.07.82,2.56,6.37,3.16,7.15.4.53.49.96,1.33.77.65-2.77,6.85-11.04,9.6-10.78,4.32.42.07,10.84-1.07,12.97-.93,1.75-5.11,6.2-5.02,7.22l3.06,6.03c.68-4.98,2.63-9.66,6.8-12.63,3.09,4.11,3.05,10.16,1.89,14.98-.47,1.94-2.98,6.77-2.94,8.09s2.25,5.03,3.24,6.09c.35.38.59,1.24,1.1.32.71-1.28.15-18.21.21-21.32.55-30.65.47-61.51.98-92.17.13-7.7-.2-15.42.06-23.11,14.52-7.28,26.41-18.7,39.33-28.35,8.61-6.44,17.7-12.25,26.35-18.61,20.44-15.03,40.69-30.3,60.54-46.1,10.72,8.41,21.27,17.1,32.14,25.31,16.86,12.74,34.55,24.42,51.46,37.07,8.71,6.51,16.92,13.78,25.68,20.22,5.47,4.02,11.18,7.78,16.92,11.41.52,32.8-.35,65.65.08,98.45.01,1.11.49,2.13.51,3.24.17,11.5-.21,22.97.45,34.42,1.41-.59,4.18-5.62,4.18-6.79,0-.98-1.86-3.79-2.33-5.13-1.56-4.46-3.26-14.79,1.59-17.53,4.04,3.11,5.9,7.62,6.4,12.6.91-1.01,2.6-4.13,2.78-5.42.47-3.22-1.62-3.47-3.18-5.66-2.35-3.31-4.51-9.05-4.73-13.1-.13-2.26.52-3.11,2.81-2.29,3.45,1.24,7.57,7.8,9.11,11.01,1.7-1.73,5.08-7.4,3.97-9.48-.76-1.42-5.7-5.34-7.02-7.13-1.58-2.13-3.4-7.31-1.65-9.6,2.88-3.78,10.8,7.03,12.67,8.41,1.45-.15,1.97-7.2,2.36-8.38.51-1.54,3.29-5.4,4.44-6.8,2.24-2.7,5.36-5.08,7.72-7.73,7.85,7.39-2.16,16.57-8.69,20.45-.19,2.22-5.54,11.86-4.63,13.19,4.25,1.58,9-1.11,13.3.53,4.84,1.85-2.49,6.94-4.78,7.83-4.13,1.62-9.12,1.38-13.39,2.42-.83.49-5.41,9.24-4.79,10.78,6.08-2.29,14.13-3.26,19.43,1.17-3.06,5.16-10.22,5.81-15.69,5.41-5.67-.41-5.78-2.82-9.78,2.83-.61.86-3.68,5.94-3.09,6.51,5.55-.78,11.39-2.32,16.37,1.2,3.52,2.49,2.52,3.48-.96,5.07-2.97,1.35-5.37,1.4-8.61,1.22-2.79-.16-6.81-1.42-9.4-1.34-2.81.09-4.59,5.88-4.84,8.19-.69,6.31.46,13.64-.55,20.04-.19,1.19-1.59,3.7-2.99,3.56H117.31c-2.42-.89-10.03.35-11.12-2.01-1.8-3.87-.44-14.92-.79-19.81-.23-3.2-1.85-9.92-5.88-10.08-5.57-.21-10.84,2.83-16.89.52-2.47-.94-4.6-2.12-2.58-4.5,4.11-4.83,11.92-2.86,17.36-2.08.46-.43-3.74-7.53-4.49-8.39-2.94-3.35-4.7-1.23-8.38-.96-5.85.43-11.98-.51-15.71-5.4,6.04-4.4,13.45-3.57,20.15-1.17-.66-2-4.24-10.62-5.95-11.14-4.52-.24-10.98-.45-14.83-2.98-.7-.46-4.35-3.95-4.48-4.46-.22-.84,1.28-2.48,1.59-2.48h13.82ZM129.52,311.44c2.18.62,7.08-.46,9.61,0-5.95-18.8-10.81-38.26-12.25-57.98-4.86.49-22.47-13.69-8.61-12.23,2.95.31,4.88,2.47,7.73,2.81-.7-3.36,1.59-10.76.24-13.57-.5-1.05-3.39-1.68-4.61-2.42-1.45-.88-3.15-2.4-4.31-3.66-2.16-2.34-8.03-10.8-3.5-12.87,2.48-1.13,6.2,1.49,8.05,3.07,1.69,1.45,2.32,3.46,3.43,4.64,1.81,1.92,2.02-1.49,2.12-3.02.72-10.92-7.4-11.74-8.41-19.25-.62-4.56,1.85-8.8,6.48-5.55l4.71,4.41c2.22-4.06-1.19-5.01-2.89-8.57-1.18-2.48-2.46-7.19-2.27-9.9.08-1.15,1.57-5.61,3-5.36,1.67.3,5.76,6.87,5.93,8.86.67-.23,1.36-1.72,1.63-2.34.58-1.34,1.78-4.96,1.64-6.28-.12-1.2-2-3.45-2.56-4.96-1.03-2.75-2.65-11.46,1.03-12.54,3.89-1.15,5.2,7.37,7.34,6.92,5.33-6.03,4.38-14.14,12.45-18.01,9.6-4.6,8.61,3.26,4.22,8.9-4,5.14-9.7,5.96-13.03,11.33-.27.43-2.75,5.15-1.73,4.83,2.2-1.27,4.22-2.81,6.68-3.63,2.2-.73,10.58-2.51,10.38,1.06-.18,3.12-8.79,8.55-11.75,9.27-3.63.88-5.44-1.06-8.82-1.55l-2.81,9.36c3.69-.35,10.57-6.96,13.33-2.79,2.32,3.52-3.26,6.7-5.96,8.51-2.09,1.4-8.72,4.3-9.7,5.29-1.84,1.87-2.3,8.78-2.35,11.45,2.1-.86,3.55-2.91,5.67-3.93,5.06-2.43,13.07-1.61,7.91,5.09-2.3,2.98-7.99,7.17-11.44,8.7-1.04.46-2.53.24-3.35.87-1.59,1.21-1.34,9.03-1.6,11.27,3.35-1.44,5.59-4.93,9.16-6.06,1.38-.43,5.03-1.04,5.87.29,2.36,3.74-4.57,9.81-7.39,11.77-1.82,1.27-6.1,3.01-7.14,4.1-1.86,1.94-.52,3.5-.48,5.56.04,2.26-.07,4.54-.02,6.8,1.1.3.79-.28,1.07-.6,1.98-2.24,7.53-8.52,10.78-7.76.75.18,2.45,2.28,2.6,3.08.6,3.12-6.58,10.29-9.15,12.21-1.66,1.24-4.19,1.51-4.34,3.61,1.77,12.36,4.24,24.8,7.6,36.82.46,1.64,3.42,12.04,3.84,12.54.74.89,11.34.83,11.9-.77-.73-9.39-2.45-18.61-2.76-28.02-.11-3.27-1.43-8.84,2.59-10.53l15.22-.95c.75-.7-5.67-7.61-6.29-8.46-2.6-3.58-5.09-7.98-6.59-12.14-1.07-2.97-2.98-6.47.82-8.07,3.79-1.59,9.44,5.49,11.58,8.08.85-2.86.52-6.79-.49-9.57-.93-2.58-3.92-4.83-3.73-8.21-3.18,1.24-5.73,1.75-8.44-.69-4.49-4.05,1.44-6.01,1.44-7.49,0-1.9-7.3-5.24-1.87-9.34,3.12-2.35,4.93-1.5,8.4-.73-.31-3.03,1.67-9.61,5.6-8.17,2.61.95,4.22,5.56,5.01,5.79.99.29,3.88-1.54,5.96-1.34,1.44.14,3.58,1.44,4.51,2.55,3.47,4.13-1.69,5.21-1.34,6.96.17.82,3.24,3.18,3.77,4.64,1.78,4.86-3.45,5.2-3.7,8.59-.06.8.43,1.54.24,2.63-.35,1.96-3.06,5.23-5.26,5.04-1.34-.12-4.97-3.36-4.97-.71v15.45c0,.07.53,1.6.94.94,1.61-4.72,13.6-18.1,12.64-5.16-.33,4.4-3.73,11.57-6.56,14.97-.74.89-4.2,3.63-4.21,4.22,2.28.2,13.19.54,13.99,2.89l-2.74,38.07h11.72v-113.5c0-12.31,18.14-21.78,28.88-22.64,12.46-1,33.92,8.14,33.92,22.64v113.5h11.25l-2.72-37.59c.99-3.57,14.91-2.82,14.91-3.83-5.55-2.75-12.93-16.04-11.52-21.8,1.45-5.91,6.79.6,8.67,2.75,1.61,1.84,2.99,4.85,5.18,5.71v-16.62c0-1.93-4.52.73-5.39.73-2,0-4.39-2.26-4.82-4.1s.54-5.06.37-5.27c-.07-.09-1.39-.37-2.11-.95-6.63-5.28,1.15-7.62,1.58-10.64.24-1.69-2.57-2.59-2.59-4.1s2.73-4.4,4.26-4.94c3.98-1.4,6.31,1.25,7.45.92.6-.17,3.66-6.11,6.17-6.03s5.64,5.91,4.92,8.41c3.19-.16,4.02-1.74,7,.26,5.15,3.47,2.37,6.32-.87,9.86-.22,1.25,6.53,4.6.88,8.34-3.38,2.24-5.36.32-8.88.26,1.18,4.09-2.02,5.69-3.17,8.3-.25.56-1.05,3.68-1.05,4.1v7.25c3.16-3.76,6.98-10.95,12.88-9.82.78.15,1.82.96,2.04,1.73.78,2.74-4.91,13.83-6.76,16.47-1.32,1.89-7.96,8.5-7.71,10.08,5.76,2.81,17.32-3.28,18.29,6.12.89,8.66-2.32,19.37-2.82,28.06-.07,1.18-.36,6.81,1.19,6.81h10.08c5.54-16.16,9.04-32.98,11.76-49.86-.15-1.68-3.79-3.16-5.42-4.45-2.82-2.25-10.79-9.73-7.5-13.54,2.16-2.51,6.31.42,8.19,2.08l5.62,5.86v-12.87c-4.11-1.32-14.95-8.96-15.37-13.22-.5-5.15,6.14-3.87,8.77-1.72l6.6,4.87c-.09-2.64.16-8.45-1.39-10.54-.78-1.05-6.62-3.16-8.6-4.52-3.98-2.72-14-12.56-2.91-12.08,5.03.22,7.03,2.59,10.55,5.61-.79-3.82-.62-8.12-2.8-11.48-4.05-2.75-8.86-4.83-12.63-7.98-1.8-1.51-5.12-4.05-3.35-6.55,2.81-3.97,12.23,3.54,13.15,2.61,0-1.4-2.27-9.24-3.04-9.3-3.16,1.5-5.68,2.69-9.14,1.56-4.2-1.38-17.11-11.65-6.34-11.49,4.98.07,7.98,2.92,12.1,4.34.35.12.96.84,1.26.15-1.48-2.4-2.67-5.47-4.66-7.51-3.48-3.57-7.73-3.8-11.46-9.15-7.13-10.24,1.81-11.76,8.41-5.59,4.66,4.37,3.36,8.18,5.65,12.15.69,1.2,2.64,2.63,3.25,4.24l5.6-7.51c6.01-1.92,3.95,8.37,2.81,11.71-.54,1.58-3.02,5.57-2.92,6.73.08.9,2.73,7.33,3.41,7.33,1.17-1.7,4.5-9.84,7.41-8,1.71,1.09,1.49,8.93,1.15,10.94-.73,4.34-6.28,8.4-5.51,13.45,2.27-1.81,6.11-7.09,9.14-7.07,2.31.02,2.84,7.08,2.35,8.95-.88,3.31-7.37,9.02-8.11,11.55-.7,2.39,1.04,7.29.84,9.96,1.45.11,1.57-1.68,2.34-2.57,2.41-2.77,7.15-7.79,11.24-6.07,3.72,1.57-.77,8.76-2.33,10.75-2.73,3.48-6.39,6.01-10.31,7.96v13.81c2.61-2.36,16.4-6.28,12.33.82-.86,1.5-7.19,6.48-8.8,7.16-1.06.45-4.06.63-4.41,1.68-.55,1.68-.3,6.25-.59,8.31-1.33,9.75-3.79,20.76-6.17,30.34-1.51,6.08-3.7,12.05-4.98,18.11.5.72,8.76.82,10.06.07,4.44-4.99,10.23-9.49,14.27-14.77,1.05-1.37,4.48-6.19,4.55-7.56.12-2.55-3.17-4.75-4.54-6.49-1.62-2.07-8.99-11.31-5.17-13.56,3.5-2.06,9.86,5.53,10.31,4.92-.57-32.98.18-66.04-.44-99.01-.02-1.11-.48-2.13-.51-3.24-.19-8.48.36-16.98-.8-25.41-.88-2.18-11.1-8.31-13.66-10.22-23.4-17.53-46.85-34.94-70.29-52.43-11.1-8.28-22.29-18.24-33.64-25.84-.94-.63-2.53-2.03-3.55-1.89-1.37.18-8.02,5.52-9.67,6.77-32.35,24.34-64.82,48.49-97.11,72.92-2.43,1.84-13.71,9.1-14.37,10.93-1.35,3.73.11,9.05-1.07,12.97l-.44,114.46c.42.58,10.49-10.45,10.82-2.58.29,6.85-10.75,15.12-10.81,17.31-.04,1.52,4.62,7.21,5.84,8.68,1.47,1.77,13.09,14.23,14.07,14.5ZM237.07,310.97l-.46-128.49c-.66-5.73-9.38-3.1-9.38-1.86v130.35h9.84ZM249.73,310.97l.02-117.74c-.97-2.94.22-6.83-1.32-9.45-1.32-2.24-5.82-4.04-7.17-1.32l.5,128.5h7.97ZM214.58,310.97h7.97l.02-125.69-.49-3.95c-10.2-.83-5.94,8.31-7.52,14.72l.02,114.93ZM258.63,310.97c.1-17.08-.13-34.18-.02-51.27.12-19.82,1.32-40.09.04-59.91-.26-4.11-.91-8.22-4.23-10.98l-.48,122.16h4.69ZM209.89,190.21c-.13-.15-1.66.35-2.01.57-2.06,1.3-3.01,9.3-3.16,11.82-1.12,18.34.36,37.38.51,55.7.14,17.55-.5,35.18.45,52.68h4.69s-.47-120.76-.47-120.76ZM169.82,209.88c-1.52-.03-.1,6.97.94,7,1.32.03.85-6.48-.94-7ZM292.37,216.89c2.69-.41,1.72-4.13,1.87-6.08l-1.87,6.08ZM182.24,214.09c-1.07-1.02-8.68,3.98-7.49,6.55,1.02,1.02,8.21-4.24,7.49-6.55ZM288.62,220.17c1.43-1.46-5.07-8.66-7.48-5.38,1.58,2.58,4.43,5.02,7.48,5.38ZM159.87,219.12c1.65,1.3,8.13.63,3.97-1.39-2.48-1.21-5.93-.16-3.97,1.39ZM304.56,217.36c-1.13.01-2.28-.12-3.4.11-1.04.21-3.41,1.3-4.09,2.22.62.66,9.07-1.02,7.49-2.33ZM184.57,226.24c1.2-2.94-3.77-3.89-5.6-2.09.01.61,4.9,2.63,5.6,2.09ZM284.87,224.84c1.51-2.03-4.54-1.02-5.5-.58-1.55.71-.41,2.12,1.47,1.97.45-.04,3.91-1.22,4.04-1.39ZM167.25,225.32c-.91.02-2.4-1.36-3.21-.88-.23.14-2.33,4-2.88,4.62.44.4,6.48-3.22,6.09-3.73ZM304.09,228.12c1.01-1.32-6.51-5.45-7.02-3.03-.31,1.44,5.51,4.28,7.02,3.03ZM180.37,235.61c1.26-1.51-3.66-9.49-4.68-8.42-.04.87,3.32,10.05,4.68,8.42ZM288.15,227.19c-.97-.15-2.06,1.79-2.46,2.46-.45.75-3.12,6.05-1.06,5.96.97-.05,3.62-7.02,3.51-8.41ZM171,235.14c2.61-.28,1.05-3.97.93-5.61-1.76,1.03-.64,3.92-.93,5.61ZM293.31,229.53c-.94-.13-.77-.09-1.06.58-.78,1.82-.18,3.66.13,5.5.68.08.84-1.23.89-1.68.16-1.46,0-2.94.04-4.4ZM187.87,274.93l-29.76.94c-2.13.4-1.14,2.67-1.17,4.21l30.93-.46v-4.69ZM276.44,279.61h30.46c-.16-.83.38-2.86-.27-3.33s-10.48-1.3-12.12-1.37c-6-.26-12.07.24-18.07.02v4.68ZM184.59,310.97l1.89-25.51c0-.39-.13-.73-.46-.96-.91-.61-19.22-.36-21.84-.23-1.01.05-6.83.62-7.04.92l3.08,25.77h24.37ZM306.9,284.76l-29.06-.47,1.84,25.55c.41.36.9.77,1.42.92,2.29.69,15.48.47,18.55.23,1.34-.11,2.67-.43,3.99-.7l3.26-25.53ZM109.14,310.97h14.06l-13.59-14.51-.47,14.51ZM354.23,310.5c.03-4.09.94-8.32.49-12.42-.08-.71-.04-1.16-.73-1.61l-12.89,14.73,13.12-.7Z"/>
  </g>
</svg>